<svg version="1.1" id="Layer_1" xmlns="http://www.w3.org/2000/svg" xmlns:xlink="http://www.w3.org/1999/xlink" x="0px" y="0px"
	 width="100%" viewBox="0 0 128 128" enable-background="new 0 0 128 128" xml:space="preserve" role="img" aria-labelledby="svgTitle svgDesc">
	
	<title id="svgTitle">Icône de flèche droite</title>
	<desc id="svgDesc">Une flèche pointant vers la droite dans un cercle.</desc>
	
	<path  fill="#965634" opacity="1.000000" stroke="none" 
		d="
	M22.991148,92.902504 
		C13.291121,76.758682 15.697000,50.034756 27.630281,35.460506 
		C45.836742,13.224755 78.948456,10.961996 99.894714,27.600996 
		C110.062447,35.677898 116.125885,46.594952 118.097771,59.831894 
		C120.968102,79.099976 114.716805,94.829483 100.196304,107.109901 
		C89.015785,116.565590 75.946709,120.253357 61.005135,118.200790 
		C48.294453,116.454689 37.972717,111.021469 29.419977,101.840813 
		C27.007090,99.250771 25.142324,96.150085 22.991148,92.902504 
	M94.567368,103.038910 
		C103.207474,97.253777 108.665688,88.894409 110.821884,79.116333 
		C114.865669,60.778252 110.542534,44.636002 95.130638,32.660400 
		C72.987198,15.454146 43.552021,21.441858 29.106693,45.155510 
		C17.778414,63.752174 22.286827,87.355583 39.255341,101.988808 
		C53.515961,114.286819 78.909813,116.039459 94.567368,103.038910 
	z"/>
	<path fill="#965634" opacity="1.000000" stroke="none" 
		d="
	M55.004021,71.000000 
		C50.845688,71.000000 47.171970,70.796814 43.530628,71.053307 
		C39.322006,71.349747 36.941566,70.267311 38.259647,65.230133 
		C53.836395,65.230133 69.596489,65.230133 86.375259,65.230133 
		C84.783760,63.482830 83.807091,62.331818 82.748100,61.262314 
		C79.238724,57.718105 75.398216,54.442959 72.314270,50.564072 
		C71.004799,48.917068 70.085518,45.107895 71.040245,43.891689 
		C73.136444,41.221394 75.310165,43.792675 77.055046,45.540001 
		C83.047050,51.540409 88.984283,57.596558 95.041222,63.530594 
		C97.865761,66.297836 97.849869,68.724106 95.029480,71.482758 
		C88.730576,77.643768 82.649422,84.032349 76.217125,90.047585 
		C75.046104,91.142677 72.628845,90.905113 70.786880,91.282753 
		C71.116074,89.438591 70.813210,87.009010 71.884598,85.852287 
		C76.364586,81.015457 81.257019,76.560661 86.994949,71.000000 
		C75.577568,71.000000 65.540260,71.000000 55.004021,71.000000 
	z"/>
</svg>